<?xml version="1.0" standalone="no"?>
<!DOCTYPE svg PUBLIC "-//W3C//DTD SVG 20010904//EN"
 "http://www.w3.org/TR/2001/REC-SVG-20010904/DTD/svg10.dtd">
<svg version="1.0" xmlns="http://www.w3.org/2000/svg"
 width="818.000000pt" height="818.000000pt" viewBox="0 0 818.000000 818.000000"
 preserveAspectRatio="xMidYMid meet">
<metadata>
Created by potrace 1.11, written by Peter Selinger 2001-2013
</metadata>
<g transform="translate(0.000000,818.000000) scale(0.100000,-0.100000)"
fill="#000000" stroke="none">
<path d="M3924 8070 c-22 -5 -56 -15 -76 -23 -19 -8 -312 -191 -650 -406 -481
-305 -626 -402 -662 -442 -129 -144 -120 -382 21 -515 65 -61 1243 -811 1313
-836 78 -28 205 -22 275 14 93 46 1240 780 1278 817 147 140 153 380 14 526
-37 38 -139 109 -342 238 -159 101 -429 273 -600 382 -170 110 -335 209 -366
222 -65 26 -147 36 -205 23z"/>
<path d="M1735 6702 c-65 -23 -1257 -781 -1313 -835 -150 -145 -145 -397 10
-543 33 -31 1189 -773 1271 -816 61 -32 212 -38 282 -11 64 25 1258 783 1307
830 77 75 126 214 113 319 -9 74 -66 185 -118 230 -23 20 -242 164 -487 320
-658 421 -770 490 -823 508 -63 21 -178 20 -242 -2z"/>
<path d="M6175 6702 c-65 -23 -1257 -781 -1313 -835 -24 -23 -57 -71 -75 -107
-29 -59 -32 -72 -31 -160 0 -80 4 -104 25 -150 50 -108 84 -133 721 -539 328
-209 616 -390 640 -402 63 -33 213 -39 283 -11 66 26 1259 783 1307 829 147
142 148 396 2 536 -38 37 -904 600 -1219 793 -106 65 -236 82 -340 46z"/>
<path d="M3978 5401 c-26 -10 -113 -61 -195 -113 -81 -52 -357 -227 -613 -389
-258 -163 -484 -313 -508 -337 -49 -48 -87 -123 -101 -199 -22 -111 29 -264
111 -339 62 -57 1254 -815 1313 -836 74 -26 186 -23 255 5 49 21 1196 742
1278 804 80 61 142 190 142 298 0 98 -52 218 -121 282 -20 17 -426 278 -1119
719 -164 104 -197 117 -305 121 -71 3 -100 -1 -137 -16z"/>
<path d="M1771 4280 c-48 -11 -129 -55 -261 -142 -63 -41 -326 -209 -585 -373
-260 -165 -487 -317 -509 -339 -21 -22 -53 -69 -70 -105 -27 -59 -31 -76 -31
-157 0 -84 3 -95 37 -165 20 -40 49 -86 65 -101 39 -37 1225 -795 1293 -826
75 -35 184 -41 261 -15 71 24 1267 782 1327 841 51 51 89 127 103 211 20 111
-24 242 -108 323 -21 20 -263 180 -538 356 -275 175 -547 350 -605 388 -156
102 -263 131 -379 104z"/>
<path d="M6207 4070 c-55 -14 -40 -5 -692 -418 -354 -225 -621 -400 -650 -429
-144 -137 -152 -374 -17 -522 40 -44 1203 -793 1301 -839 75 -35 175 -40 257
-15 42 14 196 106 525 315 255 162 531 337 614 389 82 52 168 113 192 136 140
138 143 372 7 523 -37 40 -1179 779 -1289 834 -64 31 -178 43 -248 26z"/>
<path d="M4038 2790 c-25 -4 -68 -19 -95 -33 -100 -51 -1230 -779 -1272 -819
-24 -24 -58 -72 -75 -108 -28 -58 -31 -75 -31 -155 0 -71 5 -102 24 -148 43
-109 75 -132 735 -552 358 -228 633 -396 665 -407 78 -28 195 -22 271 14 90
42 1231 773 1283 822 83 79 128 212 108 324 -14 76 -61 169 -108 213 -49 47
-1243 807 -1303 830 -57 21 -142 29 -202 19z"/>
</g>
</svg>
