<?xml version="1.0" standalone="no"?><!DOCTYPE svg PUBLIC "-//W3C//DTD SVG 1.1//EN" "http://www.w3.org/Graphics/SVG/1.1/DTD/svg11.dtd"><svg class="icon" height="512" viewBox="0 0 1024 1024" version="1.1" xmlns="http://www.w3.org/2000/svg"><path d="M636.548759 419.014135h249.097517c34.42119 0 62.274379 27.73156 62.27438 62.274379v404.783466c0 34.42119-27.73156 62.274379-62.27438 62.274379H480.86281c-34.42119 0-62.274379-27.73156-62.274379-62.274379V636.974463H543.13719c51.81423 0 93.411569-41.840599 93.411569-93.41157V419.014135zM76.079344 138.779427c0-34.42119 27.73156-62.274379 62.27438-62.274379H543.13719c34.42119 0 62.274379 27.73156 62.274379 62.274379v404.783466c0 34.42119-27.73156 62.274379-62.274379 62.27438H138.353724c-34.42119 0-62.274379-27.73156-62.27438-62.27438V138.779427z m124.548759 268.801521h45.489488v-24.08267h65.55838v115.061646h48.16534v-115.061646h66.896306v20.068891H476.240884V251.043592h-116.399573v-33.448153c0-9.852001 1.337926-18.244447 4.013779-25.420596 0.729778-1.216296 1.216296-2.675852 1.337926-4.013779 0-0.851408-3.162371-1.702815-9.365483-2.675852h-45.611118v65.55838H200.628103v156.537356z m45.489488-119.075425h65.55838v58.868749H246.117591v-58.868749z m180.620026 58.868749h-66.896306v-58.868749h66.896306v58.868749zM625.115572 822.216415l18.730966-52.179118h97.668606l18.730966 52.179118h53.517045L726.797957 574.700083h-62.882528L574.274379 822.216415h50.841193z m32.110227-93.654828l36.124005-105.696164h1.337926l33.448153 105.696164h-70.910084z m228.420477-402.959021h-62.274379c0-68.84238-55.706378-124.548759-124.548759-124.548759v-62.27438c103.141941 0 186.823138 83.681197 186.823138 186.823139zM138.353724 699.248842h62.274379c0 68.84238 55.706378 124.548759 124.548759 124.548759v62.274379C222.034921 886.07198 138.353724 802.390783 138.353724 699.248842z" /></svg>